<svg width="22" height="27" viewBox="0 0 22 27" fill="none" xmlns="http://www.w3.org/2000/svg">
<path d="M11 0C13.9164 0.00321593 16.7124 1.14213 18.7746 3.16688C20.8367 5.19163 21.9967 7.93686 22 10.8003C22 15.1946 18.7509 18.8438 15.3092 22.7062C14.2202 23.9294 13.0927 25.1944 12.089 26.4742C11.9606 26.6378 11.7956 26.7703 11.6068 26.8614C11.418 26.9526 11.2104 27 11 27C10.7896 27 10.582 26.9526 10.3932 26.8614C10.2044 26.7703 10.0394 26.6378 9.911 26.4742C8.90725 25.1944 7.77975 23.9294 6.69075 22.7062C3.24912 18.8438 0 15.1946 0 10.8003C0.00327492 7.93686 1.16325 5.19163 3.22544 3.16688C5.28763 1.14213 8.08362 0.00321593 11 0ZM11 14.8504C11.8158 14.8504 12.6134 14.6129 13.2917 14.1678C13.9701 13.7228 14.4988 13.0903 14.811 12.3502C15.1232 11.6101 15.2049 10.7958 15.0457 10.0101C14.8866 9.2245 14.4937 8.50284 13.9168 7.93642C13.3399 7.37001 12.6049 6.98427 11.8047 6.828C11.0046 6.67172 10.1752 6.75193 9.42143 7.05847C8.66769 7.36502 8.02345 7.88413 7.57019 8.55016C7.11693 9.2162 6.875 9.99925 6.875 10.8003C6.875 11.8744 7.3096 12.9046 8.08318 13.6641C8.85677 14.4237 9.90598 14.8504 11 14.8504Z" fill="white"/>
</svg>
