<svg width="28" height="28" viewBox="0 0 28 28" fill="none" xmlns="http://www.w3.org/2000/svg">
<path d="M15.4 0V4.25263C20.146 4.93333 23.8 9.01754 23.8 13.9649C23.8 15.2211 23.555 16.4211 23.128 17.5228L26.768 19.6772C27.545 17.9298 28 16.007 28 13.9649C28 6.68772 22.477 0.708772 15.4 0ZM14 23.7895C8.589 23.7895 4.2 19.3895 4.2 13.9649C4.2 9.01754 7.854 4.93333 12.6 4.25263V0C5.516 0.701754 0 6.68772 0 13.9649C0 21.7193 6.258 28 13.993 28C18.627 28 22.722 25.7333 25.27 22.2596L21.637 20.1123C20.7212 21.2608 19.5591 22.1877 18.2369 22.8243C16.9148 23.4609 15.4667 23.7908 14 23.7895Z" fill="white"/>
</svg>
