<svg width="22" height="22" viewBox="0 0 22 22" fill="none" xmlns="http://www.w3.org/2000/svg">
<path d="M10.9713 8.80814C13.4036 8.80814 15.3754 6.83637 15.3754 4.40407C15.3754 1.97177 13.4036 0 10.9713 0C8.539 0 6.56723 1.97177 6.56723 4.40407C6.56723 6.83637 8.539 8.80814 10.9713 8.80814Z" fill="white"/>
<path d="M21.8787 18.9963C21.4219 16.9163 20.3743 15.0124 18.8619 13.5132C18.4948 13.1448 18.097 12.8084 17.6728 12.5076C15.7409 11.0585 13.3862 10.2848 10.9713 10.3056C8.01846 10.2905 5.17943 11.4435 3.07332 13.5132C1.5609 15.0124 0.51337 16.9163 0.0565354 18.9963C-0.0228694 19.3641 -0.0185801 19.745 0.0690861 20.1109C0.156752 20.4768 0.325553 20.8184 0.563004 21.1102C0.808915 21.4084 1.11858 21.6476 1.46919 21.8102C1.8198 21.9728 2.20243 22.0547 2.58888 22.0498H19.3537C19.7413 22.05 20.124 21.9631 20.4734 21.7953C20.8228 21.6276 21.13 21.3834 21.3722 21.0809C21.6054 20.7924 21.7718 20.4559 21.8594 20.0954C21.9469 19.735 21.9535 19.3596 21.8787 18.9963Z" fill="white"/>
</svg>
