<svg xmlns="http://www.w3.org/2000/svg" width="26" height="23" fill="none"><path fill="#000" fill-opacity=".7" d="M13.043.89c-2.413 0-4.772.62-6.779 1.782C4.258 3.834 2.694 5.486 1.77 7.42c-.923 1.932-1.165 4.06-.694 6.11.47 2.053 1.633 3.937 3.34 5.416 1.706 1.48 3.88 2.487 6.247 2.895 2.367.408 4.82.199 7.05-.602 2.23-.8 4.135-2.156 5.476-3.895 1.34-1.74 2.056-3.785 2.056-5.877 0-2.805-1.285-5.495-3.573-7.479C19.383 2.004 16.28.89 13.043.89Zm0 16.526c-2.118.022-4.195-.513-5.956-1.533-1.762-1.021-3.125-2.48-3.912-4.185a.607.607 0 0 1 0-.463c.787-1.705 2.15-3.164 3.912-4.185 1.761-1.02 3.838-1.555 5.956-1.533C15.162 5.495 17.24 6.03 19 7.05c1.761 1.02 3.125 2.48 3.912 4.185a.608.608 0 0 1 0 .463c-.787 1.705-2.15 3.164-3.912 4.185-1.761 1.02-3.838 1.555-5.957 1.533Zm0-9.255c-.754 0-1.491.194-2.118.557a3.458 3.458 0 0 0-1.404 1.483 2.899 2.899 0 0 0-.217 1.91c.147.641.51 1.23 1.043 1.693a4.024 4.024 0 0 0 1.953.904 4.36 4.36 0 0 0 2.203-.188 3.748 3.748 0 0 0 1.71-1.217 3.002 3.002 0 0 0 .644-1.837c0-.876-.402-1.717-1.117-2.337-.715-.62-1.685-.968-2.697-.968Zm0 5.289c-.452 0-.894-.117-1.27-.335a2.074 2.074 0 0 1-.843-.89 1.739 1.739 0 0 1-.13-1.146c.088-.384.306-.738.626-1.015.32-.277.727-.466 1.171-.543a2.616 2.616 0 0 1 1.322.113c.418.15.775.405 1.027.73.251.327.385.71.385 1.102 0 .526-.24 1.03-.67 1.403-.429.372-1.01.58-1.618.58Z"/><path fill="#000" fill-opacity=".7" d="M13.044 8.161c-.755 0-1.492.194-2.119.557a3.457 3.457 0 0 0-1.404 1.483 2.899 2.899 0 0 0-.217 1.91c.147.641.51 1.23 1.043 1.693a4.025 4.025 0 0 0 1.953.904 4.36 4.36 0 0 0 2.203-.188 3.748 3.748 0 0 0 1.711-1.217 3.002 3.002 0 0 0 .643-1.837c0-.876-.402-1.717-1.117-2.337-.715-.62-1.685-.968-2.696-.968Zm0 5.289c-.453 0-.895-.117-1.271-.335a2.075 2.075 0 0 1-.843-.89 1.739 1.739 0 0 1-.13-1.146c.088-.384.306-.738.626-1.015.32-.277.727-.466 1.171-.543a2.616 2.616 0 0 1 1.322.113c.418.15.775.405 1.027.73.251.327.386.71.386 1.102 0 .526-.242 1.03-.67 1.403-.43.372-1.012.58-1.618.58Z"/></svg>